<svg width="58" height="11" viewBox="0 0 58 11" fill="none" xmlns="http://www.w3.org/2000/svg">
<path d="M1.95015 10.1001H0.435946L3.83829 0.645552H5.48637L8.88872 10.1001H7.37451L4.70157 2.36288H4.62771L1.95015 10.1001ZM2.20406 6.39768H7.11599V7.59797H2.20406V6.39768ZM18.8851 0.645552V10.1001H17.574L12.7682 3.16615H12.6805V10.1001H11.254V0.645552H12.5744L17.3847 7.58873H17.4724V0.645552H18.8851ZM25.0267 10.1001H21.966V0.645552H25.1236C26.05 0.645552 26.8456 0.834828 27.5103 1.21338C28.1751 1.58885 28.6845 2.12898 29.0384 2.83376C29.3954 3.53547 29.5739 4.3772 29.5739 5.35898C29.5739 6.34382 29.3939 7.19018 29.0338 7.89804C28.6768 8.6059 28.1597 9.15064 27.4826 9.53227C26.8056 9.91082 25.9869 10.1001 25.0267 10.1001ZM23.3924 8.85365H24.9482C25.6684 8.85365 26.267 8.71823 26.744 8.4474C27.221 8.17349 27.5781 7.77801 27.815 7.26096C28.052 6.74084 28.1705 6.10684 28.1705 5.35898C28.1705 4.61726 28.052 3.98788 27.815 3.47084C27.5811 2.95379 27.2318 2.56139 26.7671 2.29363C26.3024 2.02588 25.7253 1.892 25.0359 1.892H23.3924V8.85365ZM32.3478 10.1001V0.645552H38.2753V1.87354H33.7743V4.75422H37.966V5.97758H33.7743V8.87211H38.3307V10.1001H32.3478ZM41.1808 10.1001V0.645552H44.5508C45.2833 0.645552 45.8911 0.771736 46.3743 1.0241C46.8606 1.27647 47.2238 1.62578 47.4638 2.07204C47.7039 2.51523 47.8239 3.02765 47.8239 3.60933C47.8239 4.18793 47.7023 4.69728 47.4592 5.13738C47.2191 5.57441 46.856 5.91449 46.3697 6.15763C45.8865 6.40076 45.2787 6.52233 44.5462 6.52233H41.9933V5.29434H44.4169C44.8786 5.29434 45.2541 5.22818 45.5434 5.09584C45.8357 4.9635 46.0496 4.77114 46.1851 4.51878C46.3205 4.26641 46.3882 3.96326 46.3882 3.60933C46.3882 3.25232 46.3189 2.94302 46.1804 2.68142C46.045 2.41982 45.8311 2.21977 45.5388 2.08128C45.2495 1.9397 44.8694 1.86892 44.3985 1.86892H42.6073V10.1001H41.1808ZM45.8481 5.83447L48.184 10.1001H46.559L44.2692 5.83447H45.8481ZM55.7163 3.12922C55.6671 2.69219 55.4639 2.35365 55.1069 2.11359C54.7499 1.87046 54.3006 1.74889 53.7589 1.74889C53.3711 1.74889 53.0357 1.81044 52.7525 1.93355C52.4694 2.05358 52.2493 2.21977 52.0924 2.43213C51.9385 2.64141 51.8616 2.87993 51.8616 3.14768C51.8616 3.37235 51.9139 3.56624 52.0185 3.72936C52.1262 3.89247 52.2663 4.02943 52.4386 4.14023C52.614 4.24794 52.8018 4.33873 53.0018 4.4126C53.2019 4.48338 53.3942 4.54186 53.5789 4.58802L54.5022 4.82808C54.8038 4.90194 55.1131 5.00197 55.4301 5.12815C55.7471 5.25434 56.041 5.42053 56.3118 5.62673C56.5827 5.83293 56.8012 6.08838 56.9674 6.39307C57.1366 6.69775 57.2213 7.06246 57.2213 7.48717C57.2213 8.02268 57.0828 8.49818 56.8058 8.91366C56.5319 9.32915 56.1333 9.65692 55.6101 9.89697C55.09 10.137 54.4606 10.2571 53.722 10.2571C53.0141 10.2571 52.4017 10.1447 51.8846 9.92006C51.3676 9.69539 50.9629 9.37685 50.6705 8.96444C50.3781 8.54896 50.2165 8.05654 50.1858 7.48717H51.6169C51.6446 7.82879 51.7554 8.11347 51.9493 8.34122C52.1462 8.56589 52.3971 8.73362 52.7017 8.84442C53.0095 8.95213 53.3465 9.00599 53.7128 9.00599C54.1159 9.00599 54.4745 8.9429 54.7884 8.81672C55.1054 8.68746 55.3547 8.50895 55.5363 8.28121C55.7178 8.05038 55.8086 7.78109 55.8086 7.47332C55.8086 7.19326 55.7286 6.96397 55.5686 6.78547C55.4116 6.60696 55.1977 6.45924 54.9269 6.34229C54.6591 6.22533 54.356 6.12223 54.0174 6.03298L52.9003 5.72829C52.1432 5.52209 51.543 5.21894 51.0998 4.81885C50.6597 4.41875 50.4397 3.8894 50.4397 3.23078C50.4397 2.68603 50.5874 2.21054 50.8829 1.80429C51.1783 1.39804 51.5784 1.08258 52.0831 0.85791C52.5879 0.630164 53.1572 0.51629 53.7912 0.51629C54.4314 0.51629 54.9961 0.628625 55.4855 0.853294C55.9779 1.07796 56.3657 1.38727 56.6488 1.78121C56.932 2.17207 57.0797 2.6214 57.092 3.12922H55.7163Z" fill="#E85340"/>
</svg>
