<svg width="26" height="11" viewBox="0 0 26 11" fill="none" xmlns="http://www.w3.org/2000/svg">
<path d="M7.47021 3.96018L7.03165 4.91118H0.960982L1.30722 3.96018H7.47021ZM6.64387 5.83447L6.19607 6.7947H0.960982L1.30722 5.83447H6.64387ZM8.59664 1.45344L8.05189 2.6214C7.87954 2.47368 7.69181 2.3398 7.48868 2.21977C7.28556 2.09974 7.06704 2.00433 6.83314 1.93355C6.59924 1.85969 6.34841 1.82275 6.08066 1.82275C5.58823 1.82275 5.14967 1.95509 4.76496 2.21977C4.38025 2.48445 4.0771 2.88147 3.85551 3.41082C3.637 3.9371 3.52774 4.59264 3.52774 5.37744C3.52774 6.16224 3.637 6.81778 3.85551 7.34406C4.0771 7.87034 4.38025 8.26582 4.76496 8.5305C5.14967 8.7921 5.58823 8.9229 6.08066 8.9229C6.35149 8.9229 6.60386 8.8875 6.83776 8.81672C7.07474 8.74593 7.29017 8.6536 7.48406 8.53973C7.68103 8.42278 7.858 8.29967 8.01496 8.17041L8.57355 9.33376C8.24732 9.62922 7.86877 9.85235 7.4379 10.0032C7.00703 10.154 6.55461 10.2294 6.08066 10.2294C5.30816 10.2294 4.62339 10.0339 4.02632 9.64307C3.43234 9.2522 2.96607 8.69515 2.62753 7.9719C2.28899 7.24558 2.11972 6.38076 2.11972 5.37744C2.11972 4.37105 2.28899 3.50469 2.62753 2.77836C2.96607 2.05204 3.43234 1.49344 4.02632 1.10258C4.62339 0.711721 5.30816 0.51629 6.08066 0.51629C6.57308 0.51629 7.03165 0.597848 7.45637 0.760963C7.88108 0.921002 8.26117 1.15183 8.59664 1.45344ZM14.8456 0.645552V10.1001H13.4145V2.07666H13.3591L11.097 3.55393V2.18746L13.456 0.645552H14.8456ZM21.6946 10.2571C20.9652 10.254 20.342 10.0616 19.825 9.68C19.3079 9.29837 18.9124 8.74285 18.6385 8.01345C18.3646 7.28405 18.2277 6.40538 18.2277 5.37744C18.2277 4.35258 18.3646 3.47699 18.6385 2.75067C18.9155 2.02434 19.3125 1.47036 19.8296 1.08873C20.3497 0.707105 20.9714 0.51629 21.6946 0.51629C22.4179 0.51629 23.038 0.708644 23.5551 1.09335C24.0721 1.47498 24.4676 2.02896 24.7415 2.75528C25.0185 3.47853 25.157 4.35258 25.157 5.37744C25.157 6.40845 25.02 7.28866 24.7461 8.01807C24.4722 8.74439 24.0767 9.29991 23.5597 9.68461C23.0427 10.0662 22.421 10.2571 21.6946 10.2571ZM21.6946 9.02446C22.3348 9.02446 22.8349 8.71208 23.195 8.08731C23.5582 7.46255 23.7397 6.55926 23.7397 5.37744C23.7397 4.59264 23.6566 3.92941 23.4905 3.38774C23.3273 2.843 23.0919 2.43059 22.7841 2.15052C22.4794 1.86738 22.1163 1.72581 21.6946 1.72581C21.0576 1.72581 20.5575 2.03973 20.1943 2.66757C19.8311 3.29541 19.648 4.1987 19.6449 5.37744C19.6449 6.16532 19.7265 6.83163 19.8896 7.37638C20.0558 7.91804 20.2912 8.32891 20.5959 8.60898C20.9006 8.88596 21.2669 9.02446 21.6946 9.02446Z" fill="#E85340"/>
</svg>
