<svg width="27" height="11" viewBox="0 0 27 11" fill="none" xmlns="http://www.w3.org/2000/svg">
<path d="M7.05615 3.96018L6.61759 4.91118H0.546919L0.893155 3.96018H7.05615ZM6.2298 5.83447L5.782 6.7947H0.546919L0.893155 5.83447H6.2298ZM8.18257 1.45344L7.63783 2.6214C7.46548 2.47368 7.27774 2.3398 7.07462 2.21977C6.87149 2.09974 6.65298 2.00433 6.41908 1.93355C6.18518 1.85969 5.93435 1.82275 5.66659 1.82275C5.17417 1.82275 4.7356 1.95509 4.3509 2.21977C3.96619 2.48445 3.66304 2.88147 3.44145 3.41082C3.22294 3.9371 3.11368 4.59264 3.11368 5.37744C3.11368 6.16224 3.22294 6.81778 3.44145 7.34406C3.66304 7.87034 3.96619 8.26582 4.3509 8.5305C4.7356 8.7921 5.17417 8.9229 5.66659 8.9229C5.93743 8.9229 6.18979 8.8875 6.4237 8.81672C6.66067 8.74593 6.87611 8.6536 7.07 8.53973C7.26697 8.42278 7.44394 8.29967 7.6009 8.17041L8.15949 9.33376C7.83326 9.62922 7.45471 9.85235 7.02384 10.0032C6.59297 10.154 6.14055 10.2294 5.66659 10.2294C4.8941 10.2294 4.20932 10.0339 3.61226 9.64307C3.01827 9.2522 2.55201 8.69515 2.21347 7.9719C1.87493 7.24558 1.70566 6.38076 1.70566 5.37744C1.70566 4.37105 1.87493 3.50469 2.21347 2.77836C2.55201 2.05204 3.01827 1.49344 3.61226 1.10258C4.20932 0.711721 4.8941 0.51629 5.66659 0.51629C6.15902 0.51629 6.61759 0.597848 7.0423 0.760963C7.46702 0.921002 7.84711 1.15183 8.18257 1.45344ZM10.8445 10.1001V9.06601L14.0437 5.75138C14.3853 5.39129 14.6669 5.07583 14.8885 4.805C15.1132 4.53109 15.2809 4.27103 15.3917 4.02481C15.5025 3.7786 15.5579 3.517 15.5579 3.24001C15.5579 2.92609 15.4841 2.65526 15.3363 2.42751C15.1886 2.19669 14.987 2.01972 14.7316 1.89662C14.4761 1.77043 14.1884 1.70734 13.8683 1.70734C13.5298 1.70734 13.2343 1.77659 12.9819 1.91508C12.7296 2.05358 12.5357 2.24901 12.4003 2.50138C12.2648 2.75374 12.1971 3.0492 12.1971 3.38774H10.8353C10.8353 2.81222 10.9676 2.30902 11.2323 1.87815C11.497 1.44728 11.8601 1.11336 12.3218 0.876376C12.7834 0.636319 13.3082 0.51629 13.896 0.51629C14.49 0.51629 15.0132 0.63478 15.4656 0.871759C15.9211 1.10566 16.2766 1.42574 16.532 1.83199C16.7874 2.23516 16.9152 2.69065 16.9152 3.19846C16.9152 3.54932 16.849 3.89247 16.7167 4.22794C16.5874 4.5634 16.3612 4.93734 16.038 5.34974C15.7149 5.75907 15.2656 6.25611 14.69 6.84086L12.8111 8.80748V8.87673H17.0675V10.1001H10.8445ZM23.1087 10.2571C22.3793 10.254 21.7561 10.0616 21.239 9.68C20.722 9.29837 20.3265 8.74285 20.0526 8.01345C19.7787 7.28405 19.6417 6.40538 19.6417 5.37744C19.6417 4.35258 19.7787 3.47699 20.0526 2.75067C20.3296 2.02434 20.7266 1.47036 21.2437 1.08873C21.7638 0.707105 22.3855 0.51629 23.1087 0.51629C23.832 0.51629 24.4521 0.708644 24.9691 1.09335C25.4862 1.47498 25.8817 2.02896 26.1556 2.75528C26.4326 3.47853 26.5711 4.35258 26.5711 5.37744C26.5711 6.40845 26.4341 7.28866 26.1602 8.01807C25.8863 8.74439 25.4908 9.29991 24.9738 9.68461C24.4567 10.0662 23.835 10.2571 23.1087 10.2571ZM23.1087 9.02446C23.7489 9.02446 24.249 8.71208 24.6091 8.08731C24.9722 7.46255 25.1538 6.55926 25.1538 5.37744C25.1538 4.59264 25.0707 3.92941 24.9045 3.38774C24.7414 2.843 24.506 2.43059 24.1982 2.15052C23.8935 1.86738 23.5303 1.72581 23.1087 1.72581C22.4716 1.72581 21.9715 2.03973 21.6084 2.66757C21.2452 3.29541 21.0621 4.1987 21.059 5.37744C21.059 6.16532 21.1406 6.83163 21.3037 7.37638C21.4699 7.91804 21.7053 8.32891 22.01 8.60898C22.3147 8.88596 22.6809 9.02446 23.1087 9.02446Z" fill="#E85340"/>
</svg>
