<svg width="27" height="11" viewBox="0 0 27 11" fill="none" xmlns="http://www.w3.org/2000/svg">
<path d="M6.51172 3.96018L6.07315 4.91118H0.0024858L0.348722 3.96018H6.51172ZM5.68537 5.83447L5.23757 6.7947H0.0024858L0.348722 5.83447H5.68537ZM7.63814 1.45344L7.09339 2.6214C6.92105 2.47368 6.73331 2.3398 6.53019 2.21977C6.32706 2.09974 6.10855 2.00433 5.87465 1.93355C5.64074 1.85969 5.38991 1.82275 5.12216 1.82275C4.62974 1.82275 4.19117 1.95509 3.80646 2.21977C3.42176 2.48445 3.11861 2.88147 2.89702 3.41082C2.6785 3.9371 2.56925 4.59264 2.56925 5.37744C2.56925 6.16224 2.6785 6.81778 2.89702 7.34406C3.11861 7.87034 3.42176 8.26582 3.80646 8.5305C4.19117 8.7921 4.62974 8.9229 5.12216 8.9229C5.39299 8.9229 5.64536 8.8875 5.87926 8.81672C6.11624 8.74593 6.33168 8.6536 6.52557 8.53973C6.72254 8.42278 6.8995 8.29967 7.05646 8.17041L7.61506 9.33376C7.28883 9.62922 6.91027 9.85235 6.4794 10.0032C6.04853 10.154 5.59612 10.2294 5.12216 10.2294C4.34967 10.2294 3.66489 10.0339 3.06783 9.64307C2.47384 9.2522 2.00758 8.69515 1.66903 7.9719C1.33049 7.24558 1.16122 6.38076 1.16122 5.37744C1.16122 4.37105 1.33049 3.50469 1.66903 2.77836C2.00758 2.05204 2.47384 1.49344 3.06783 1.10258C3.66489 0.711721 4.34967 0.51629 5.12216 0.51629C5.61458 0.51629 6.07315 0.597848 6.49787 0.760963C6.92259 0.921002 7.30268 1.15183 7.63814 1.45344ZM13.4208 10.2294C12.8422 10.2294 12.3221 10.1186 11.8604 9.89697C11.4019 9.6723 11.0356 9.36454 10.7617 8.97368C10.4878 8.58282 10.3416 8.13656 10.3232 7.6349H11.7081C11.742 8.04115 11.922 8.37507 12.2482 8.63667C12.5745 8.89827 12.9653 9.02907 13.4208 9.02907C13.784 9.02907 14.1056 8.94598 14.3857 8.77979C14.6688 8.61051 14.8904 8.37815 15.0504 8.0827C15.2135 7.78724 15.2951 7.45024 15.2951 7.07169C15.2951 6.68698 15.212 6.34382 15.0458 6.04221C14.8796 5.7406 14.6503 5.50362 14.358 5.33128C14.0687 5.15893 13.7363 5.07122 13.3608 5.06814C13.0746 5.06814 12.7868 5.11738 12.4975 5.21586C12.2082 5.31435 11.9743 5.44361 11.7958 5.60365L10.4893 5.40976L11.0202 0.645552H16.2184V1.86892H12.2067L11.9066 4.51416H11.962C12.1467 4.33566 12.3913 4.18639 12.696 4.06636C13.0038 3.94633 13.3331 3.88632 13.6839 3.88632C14.2595 3.88632 14.7719 4.02327 15.2212 4.29719C15.6737 4.5711 16.0291 4.94503 16.2876 5.41899C16.5492 5.88987 16.6785 6.43154 16.6754 7.04399C16.6785 7.65644 16.54 8.20273 16.2599 8.68284C15.983 9.16295 15.5982 9.5415 15.1058 9.81849C14.6165 10.0924 14.0548 10.2294 13.4208 10.2294ZM22.6531 10.2571C21.9237 10.254 21.3005 10.0616 20.7835 9.68C20.2664 9.29837 19.8709 8.74285 19.597 8.01345C19.3231 7.28405 19.1862 6.40538 19.1862 5.37744C19.1862 4.35258 19.3231 3.47699 19.597 2.75067C19.874 2.02434 20.271 1.47036 20.7881 1.08873C21.3082 0.707105 21.9299 0.51629 22.6531 0.51629C23.3764 0.51629 23.9965 0.708644 24.5136 1.09335C25.0306 1.47498 25.4261 2.02896 25.7 2.75528C25.977 3.47853 26.1155 4.35258 26.1155 5.37744C26.1155 6.40845 25.9785 7.28866 25.7046 8.01807C25.4307 8.74439 25.0352 9.29991 24.5182 9.68461C24.0012 10.0662 23.3795 10.2571 22.6531 10.2571ZM22.6531 9.02446C23.2933 9.02446 23.7934 8.71208 24.1535 8.08731C24.5167 7.46255 24.6982 6.55926 24.6982 5.37744C24.6982 4.59264 24.6151 3.92941 24.449 3.38774C24.2858 2.843 24.0504 2.43059 23.7426 2.15052C23.4379 1.86738 23.0748 1.72581 22.6531 1.72581C22.0161 1.72581 21.516 2.03973 21.1528 2.66757C20.7896 3.29541 20.6065 4.1987 20.6034 5.37744C20.6034 6.16532 20.685 6.83163 20.8481 7.37638C21.0143 7.91804 21.2497 8.32891 21.5544 8.60898C21.8591 8.88596 22.2253 9.02446 22.6531 9.02446Z" fill="#E85340"/>
</svg>
