<svg width="17" height="11" viewBox="0 0 17 11" fill="none" xmlns="http://www.w3.org/2000/svg">
<path d="M6.70752 3.96018L6.26895 4.91118H0.198287L0.544522 3.96018H6.70752ZM5.88117 5.83447L5.43337 6.7947H0.198287L0.544522 5.83447H5.88117ZM7.83394 1.45344L7.2892 2.6214C7.11685 2.47368 6.92911 2.3398 6.72599 2.21977C6.52286 2.09974 6.30435 2.00433 6.07045 1.93355C5.83654 1.85969 5.58572 1.82275 5.31796 1.82275C4.82554 1.82275 4.38697 1.95509 4.00226 2.21977C3.61756 2.48445 3.31441 2.88147 3.09282 3.41082C2.8743 3.9371 2.76505 4.59264 2.76505 5.37744C2.76505 6.16224 2.8743 6.81778 3.09282 7.34406C3.31441 7.87034 3.61756 8.26582 4.00226 8.5305C4.38697 8.7921 4.82554 8.9229 5.31796 8.9229C5.58879 8.9229 5.84116 8.8875 6.07506 8.81672C6.31204 8.74593 6.52748 8.6536 6.72137 8.53973C6.91834 8.42278 7.0953 8.29967 7.25226 8.17041L7.81086 9.33376C7.48463 9.62922 7.10608 9.85235 6.6752 10.0032C6.24433 10.154 5.79192 10.2294 5.31796 10.2294C4.54547 10.2294 3.86069 10.0339 3.26363 9.64307C2.66964 9.2522 2.20338 8.69515 1.86483 7.9719C1.52629 7.24558 1.35702 6.38076 1.35702 5.37744C1.35702 4.37105 1.52629 3.50469 1.86483 2.77836C2.20338 2.05204 2.66964 1.49344 3.26363 1.10258C3.86069 0.711721 4.54547 0.51629 5.31796 0.51629C5.81038 0.51629 6.26895 0.597848 6.69367 0.760963C7.11839 0.921002 7.49848 1.15183 7.83394 1.45344ZM13.6166 10.2294C13.038 10.2294 12.5179 10.1186 12.0562 9.89697C11.5977 9.6723 11.2314 9.36454 10.9575 8.97368C10.6836 8.58282 10.5374 8.13656 10.519 7.6349H11.9039C11.9378 8.04115 12.1178 8.37507 12.444 8.63667C12.7703 8.89827 13.1611 9.02907 13.6166 9.02907C13.9798 9.02907 14.3014 8.94598 14.5815 8.77979C14.8646 8.61051 15.0862 8.37815 15.2462 8.0827C15.4093 7.78724 15.4909 7.45024 15.4909 7.07169C15.4909 6.68698 15.4078 6.34382 15.2416 6.04221C15.0754 5.7406 14.8461 5.50362 14.5538 5.33128C14.2645 5.15893 13.9321 5.07122 13.5566 5.06814C13.2704 5.06814 12.9826 5.11738 12.6933 5.21586C12.404 5.31435 12.1701 5.44361 11.9916 5.60365L10.6851 5.40976L11.216 0.645552H16.4142V1.86892H12.4025L12.1024 4.51416H12.1578C12.3425 4.33566 12.5871 4.18639 12.8918 4.06636C13.1996 3.94633 13.5289 3.88632 13.8797 3.88632C14.4553 3.88632 14.9677 4.02327 15.417 4.29719C15.8695 4.5711 16.2249 4.94503 16.4834 5.41899C16.745 5.88987 16.8743 6.43154 16.8712 7.04399C16.8743 7.65644 16.7358 8.20273 16.4557 8.68284C16.1788 9.16295 15.794 9.5415 15.3016 9.81849C14.8123 10.0924 14.2506 10.2294 13.6166 10.2294Z" fill="#E85340"/>
</svg>
